<svg width="20" height="13" viewBox="0 0 20 13" fill="none" xmlns="http://www.w3.org/2000/svg">
<path fill-rule="evenodd" clip-rule="evenodd" d="M9.99999 0.333332C5.83333 0.333332 2.27499 2.925 0.833328 6.58333C2.27499 10.2417 5.83333 12.8333 9.99999 12.8333C14.1667 12.8333 17.725 10.2417 19.1667 6.58333C17.725 2.925 14.1667 0.333332 9.99999 0.333332ZM9.99999 10.75C7.69999 10.75 5.83333 8.88333 5.83333 6.58333C5.83333 4.28333 7.69999 2.41667 9.99999 2.41667C12.3 2.41667 14.1667 4.28333 14.1667 6.58333C14.1667 8.88333 12.3 10.75 9.99999 10.75ZM9.99999 4.08333C8.61666 4.08333 7.49999 5.2 7.49999 6.58333C7.49999 7.96667 8.61666 9.08333 9.99999 9.08333C11.3833 9.08333 12.5 7.96667 12.5 6.58333C12.5 5.2 11.3833 4.08333 9.99999 4.08333Z" fill="#181C43"/>
</svg>
